<?xml version="1.0" encoding="UTF-8"?>
<svg width="91px" height="91px" viewBox="0 0 91 91" version="1.1" xmlns="http://www.w3.org/2000/svg" xmlns:xlink="http://www.w3.org/1999/xlink">
    <!-- Generator: Sketch 52.2 (67145) - http://www.bohemiancoding.com/sketch -->
    <title>logo_allied</title>
    <desc>Created with Sketch.</desc>
    <g id="Page-1" stroke="none" stroke-width="1" fill="none" fill-rule="evenodd">
        <g id="logo_allied" transform="translate(1.000000, 1.000000)">
            <rect id="Rectangle" stroke="#FFFFFF" fill="#ED1B2E" x="-0.5" y="-0.5" width="89.74" height="89.74" rx="6.6"></rect>
            <path d="M87.8500078,16 L87.85,81.38 C87.8526548,83.0950305 87.1732219,84.740727 85.961449,85.9543756 C84.7496761,87.1680243 83.1050325,87.8500021 81.39,87.85 L7.39,87.85 C5.66804688,87.8606646 4.01310139,87.1833956 2.79266016,85.9685872 C1.57221894,84.7537787 0.887301363,83.101984 0.89,81.38 L0.89,62.25 L87.8500078,16 Z" id="Path" fill="#CE1627"></path>
            <g id="Group" opacity="0.25" transform="translate(16.000000, 15.000000)" fill="#CE1627" fill-rule="nonzero">
                <path d="M42.27,0.81 L27.27,0.81 L0,70.49 L15,70.49 L20.79,54.66 L25.15,42.93 L34.63,17.06 L44.29,42.93 L48.84,54.66 L55,70.49 L70.37,70.49 L42.27,0.81 Z M34.78,40 C28.6205225,40.033138 23.6525702,45.0503064 23.6801518,51.2098113 C23.7077334,57.3693162 28.7204182,62.3417924 34.8799456,62.3197671 C41.0394729,62.2977419 46.0164688,57.2895447 46,51.13 C45.9614715,44.9639561 40.9461542,39.9888686 34.78,40 Z" id="Shape"></path>
            </g>
            <path d="M50.57,54.77 C44.4158086,54.8141195 39.458949,59.8320168 39.4901476,65.9862873 C39.5213463,72.1405579 44.5288255,77.1079416 50.683148,77.089664 C56.8374704,77.0713864 61.8153565,72.0743473 61.81,65.92 C61.7994148,62.950482 60.6089298,60.1069441 58.5007267,58.0156217 C56.3925237,55.9242993 53.5395072,54.7567124 50.57,54.77 Z M58.07,15.61 L43.07,15.61 L15.76,85.29 L30.76,85.29 L36.55,69.46 L40.9,57.72 L50.38,31.86 L60.05,57.72 L64.6,69.46 L70.72,85.29 L86.17,85.29 L58.07,15.61 Z" id="Shape" fill="#CC1626" fill-rule="nonzero" opacity="0.27"></path>
            <path d="M50.37,54.57 C44.2239851,54.6196107 39.2771535,59.6333896 39.3101608,65.7795161 C39.3431681,71.9256425 44.3435649,76.8860006 50.4897581,76.8695971 C56.6359514,76.8531935 61.6097998,71.8662151 61.61,65.72 C61.5994148,62.750482 60.4089298,59.9069441 58.3007267,57.8156217 C56.1925237,55.7242993 53.3395072,54.5567124 50.37,54.57 Z M57.86,15.4 L42.86,15.4 L15.55,85.09 L30.55,85.09 L36.34,69.26 L40.69,57.52 L50.17,31.66 L59.83,57.52 L64.38,69.26 L70.51,85.09 L86,85.09 L57.86,15.4 Z" id="Shape" fill="#C91525" fill-rule="nonzero" opacity="0.3"></path>
            <path d="M50.17,54.37 C44.0226321,54.4141078 39.0707745,59.4254949 39.1001271,65.5729509 C39.1294797,71.720407 44.1289667,76.6842788 50.2764755,76.6696816 C56.4239843,76.6550843 61.3998418,71.6675261 61.4,65.52 C61.3894103,62.5522216 60.2002991,59.7102045 58.0942615,57.6191698 C55.9882238,55.5281351 53.1377783,54.3593724 50.17,54.37 Z M57.66,15.2 L42.66,15.2 L15.35,84.89 L30.35,84.89 L36.14,69.05 L40.5,57.32 L50,31.46 L59.67,57.32 L64.22,69.05 L70.35,84.89 L85.76,84.89 L57.66,15.2 Z" id="Shape" fill="#C71525" fill-rule="nonzero" opacity="0.32"></path>
            <path d="M50,54.16 C43.8417574,54.1820727 38.8653298,59.1883065 38.8800318,65.3465711 C38.8947338,71.5048357 43.8950078,76.4872516 50.0532856,76.4799204 C56.2115633,76.4725892 61.1999604,71.4782821 61.2,65.32 C61.1779643,59.1500375 56.1700018,54.1599607 50,54.16 Z M57.46,15 L42.46,15 L15.15,84.68 L30.15,84.68 L36,68.85 L40.35,57.12 L49.8,31.26 L59.47,57.12 L64,68.85 L70.12,84.68 L85.56,84.68 L57.46,15 Z" id="Shape" fill="#C51524" fill-rule="nonzero" opacity="0.35"></path>
            <path d="M49.76,54 C43.6006177,54.0442155 38.6417071,59.0702706 38.6803301,65.2296905 C38.7189531,71.3891104 43.7405035,76.3525824 49.899956,76.319552 C56.0594085,76.2865216 61.0274378,71.2694799 61,65.11 C60.9504899,58.9439579 55.9262009,53.9777789 49.76,54 Z M57.25,14.8 L42.25,14.8 L14.94,84.48 L30,84.48 L35.8,68.65 L40.15,56.92 L49.6,31.05 L59.26,56.92 L63.81,68.65 L69.94,84.48 L85.35,84.48 L57.25,14.8 Z" id="Shape" fill="#C31424" fill-rule="nonzero" opacity="0.37"></path>
            <path d="M49.56,53.76 C43.4126321,53.8041078 38.4607745,58.8154949 38.4901271,64.9629509 C38.5194797,71.110407 43.5189667,76.0742788 49.6664755,76.0596816 C55.8139843,76.0450843 60.7898418,71.0575261 60.79,64.91 C60.7820639,61.9413985 59.5938003,59.0978347 57.4871844,57.0062259 C55.3805686,54.9146171 52.5285823,53.746713 49.56,53.76 Z M57.05,14.6 L42.05,14.6 L14.74,84.28 L29.74,84.28 L35.53,68.45 L39.89,56.71 L49.36,30.85 L59.03,56.71 L63.58,68.45 L69.71,84.28 L85.15,84.28 L57.05,14.6 Z" id="Shape" fill="#C11423" fill-rule="nonzero" opacity="0.4"></path>
            <path d="M49.35,53.56 C43.2039851,53.6096107 38.2571535,58.6233896 38.2901608,64.7695161 C38.3231681,70.9156425 43.3235649,75.8760006 49.4697581,75.8595971 C55.6159514,75.8431935 60.5897998,70.8562151 60.59,64.71 C60.5794148,61.740482 59.3889298,58.8969441 57.2807267,56.8056217 C55.1725237,54.7142993 52.3195072,53.5467124 49.35,53.56 Z M56.84,14.39 L41.84,14.39 L14.54,84.08 L29.54,84.08 L35.33,68.24 L39.68,56.51 L49.16,30.65 L58.83,56.51 L63.38,68.24 L69.5,84.08 L85,84.08 L56.84,14.39 Z" id="Shape" fill="#BF1322" fill-rule="nonzero" opacity="0.42"></path>
            <path d="M49.15,53.35 C42.9957621,53.3886026 38.0344025,58.4020688 38.0600973,64.5563741 C38.0857921,70.7106794 43.0888415,75.6825433 49.2431871,75.6697564 C55.3975328,75.6569695 60.3798789,70.6643589 60.38,64.51 C60.3579447,58.3283115 55.3317056,53.3334025 49.15,53.35 Z M56.64,14.19 L41.64,14.19 L14.33,83.87 L29.33,83.87 L35.15,68 L39.51,56.27 L49,30.45 L58.66,56.31 L63.2,68 L69.33,83.83 L84.74,83.83 L56.64,14.19 Z" id="Shape" fill="#BC1322" fill-rule="nonzero" opacity="0.44"></path>
            <path d="M48.94,53.15 C42.7871091,53.1941079 37.8307743,58.2099723 37.860127,64.3629513 C37.8894797,70.5159303 42.893444,75.4842792 49.0464757,75.4696819 C55.1995074,75.4550845 60.1798419,70.463049 60.18,64.31 C60.1720639,61.3387464 58.9827467,58.492639 56.8742555,56.3991549 C54.7657643,54.3056707 51.9112345,53.136713 48.94,53.15 Z M56.44,14 L41.44,14 L14.13,83.67 L29.13,83.67 L35,67.84 L39.3,56.11 L48.78,30.24 L58.45,56.11 L63,67.84 L69.13,83.67 L84.54,83.67 L56.44,14 Z" id="Shape" fill="#BA1221" fill-rule="nonzero" opacity="0.47"></path>
            <path d="M48.74,53 C42.5820359,53.0552688 37.6326956,58.0881468 37.6804951,64.2461734 C37.7282945,70.4042001 42.7551656,75.3596413 48.9132457,75.3193112 C55.0713257,75.2789811 60.0328606,70.2581245 60,64.1 C59.9504774,57.9277146 54.9123621,52.9611888 48.74,53 Z M56.23,13.84 L41.23,13.84 L13.92,83.47 L29,83.47 L34.79,67.64 L39.1,55.9 L48.58,30 L58.25,55.9 L62.79,67.64 L68.92,83.47 L84.33,83.47 L56.23,13.84 Z" id="Shape" fill="#B81220" fill-rule="nonzero" opacity="0.49"></path>
            <path d="M48.54,52.75 C42.3926321,52.7941078 37.4407745,57.8054949 37.4701271,63.9529509 C37.4994797,70.100407 42.4989667,75.0642788 48.6464755,75.0496816 C54.7939843,75.0350843 59.7698418,70.0475261 59.77,63.9 C59.7594103,60.9322216 58.5702991,58.0902045 56.4642615,55.9991698 C54.3582238,53.9081351 51.5077783,52.7393724 48.54,52.75 Z M56,13.58 L41,13.58 L13.72,83.27 L28.72,83.27 L34.51,67.44 L38.9,55.7 L48.38,29.84 L58,55.7 L62.55,67.44 L68.68,83.27 L84.13,83.27 L56,13.58 Z" id="Shape" fill="#B6111F" fill-rule="nonzero" opacity="0.52"></path>
            <path d="M48.33,52.55 C42.1839851,52.5996107 37.2371535,57.6133896 37.2701608,63.7595161 C37.3031681,69.9056425 42.3035649,74.8660006 48.4497581,74.8495971 C54.5959514,74.8331935 59.5697998,69.8462151 59.57,63.7 C59.5620723,60.7296572 58.3724356,57.8845694 56.2636529,55.7926719 C54.1548701,53.7007745 51.3003106,52.5340483 48.33,52.55 Z M55.83,13.38 L40.83,13.38 L13.52,83.07 L28.52,83.07 L34.31,67.23 L38.69,55.5 L48.17,29.64 L57.84,55.5 L62.39,67.23 L68.51,83.07 L83.93,83.07 L55.83,13.38 Z" id="Shape" fill="#B4101F" fill-rule="nonzero" opacity="0.54"></path>
            <path d="M48.13,52.34 C41.9771091,52.3841079 37.0207743,57.3999723 37.050127,63.5529513 C37.0794797,69.7059303 42.083444,74.6742792 48.2364757,74.6596819 C54.3895074,74.6450845 59.3698419,69.653049 59.37,63.5 C59.3594103,60.5295694 58.1692455,57.6850089 56.0613325,55.5920988 C53.9534195,53.4991887 51.1004304,52.3293724 48.13,52.34 Z M55.62,13.18 L40.62,13.18 L13.31,82.86 L28.31,82.86 L34.14,67 L38.49,55.3 L48,29.44 L57.63,55.3 L62.18,67 L68.31,82.83 L83.72,82.83 L55.62,13.18 Z" id="Shape" fill="#B1101E" fill-rule="nonzero" opacity="0.56"></path>
            <path d="M47.93,52.14 C41.7744615,52.1786131 36.8125756,57.1941123 36.840116,63.3497102 C36.8676564,69.5053082 41.8742219,74.4762081 48.0298595,74.4597405 C54.185497,74.4432729 59.1653947,69.4456572 59.16,63.29 C59.1494103,60.3222216 57.9602991,57.4802045 55.8542615,55.3891698 C53.7482238,53.2981351 50.8977783,52.1293724 47.93,52.14 Z M55.42,13 L40.42,13 L13.11,82.66 L28.11,82.66 L33.9,66.83 L38.26,55.09 L47.73,29.23 L57.4,55.09 L62,66.83 L68.13,82.66 L83.52,82.66 L55.42,13 Z" id="Shape" fill="#AF0F1D" fill-rule="nonzero" opacity="0.59"></path>
            <path d="M47.72,51.94 C41.5712568,52.0061215 36.6345139,57.0335483 36.6803135,63.1824764 C36.726113,69.3314046 41.7371965,74.2847361 47.8862424,74.259259 C54.0352883,74.2337818 59.0051544,69.2390965 59,63.09 C58.9894565,60.113507 57.793478,57.2638647 55.6766035,55.1713868 C53.5597289,53.0789089 50.6964153,51.9160416 47.72,51.94 Z M55.22,12.78 L40.22,12.78 L12.91,82.46 L27.91,82.46 L33.7,66.63 L38.05,54.89 L47.56,29 L57.23,54.86 L61.78,66.6 L67.9,82.46 L83.32,82.46 L55.22,12.78 Z" id="Shape" fill="#AD0F1C" fill-rule="nonzero" opacity="0.61"></path>
            <path d="M47.52,51.74 C41.3739851,51.7896107 36.4271535,56.8033896 36.4601608,62.9495161 C36.4931681,69.0956425 41.4935649,74.0560006 47.6397581,74.0395971 C53.7859514,74.0231935 58.7597998,69.0362151 58.76,62.89 C58.7494148,59.920482 57.5589298,57.0769441 55.4507267,54.9856217 C53.3425237,52.8942993 50.4895072,51.7267124 47.52,51.74 Z M55,12.57 L40,12.57 L12.7,82.26 L27.7,82.26 L33.49,66.42 L37.85,54.69 L47.33,28.83 L57,54.69 L61.55,66.42 L67.7,82.26 L83.11,82.26 L55,12.57 Z" id="Shape" fill="#AB0E1B" fill-rule="nonzero" opacity="0.64"></path>
            <path d="M47.32,51.54 C41.1726321,51.5841078 36.2207745,56.5954949 36.2501271,62.7429509 C36.2794797,68.890407 41.2789667,73.8542788 47.4264755,73.8396816 C53.5739843,73.8250843 58.5498418,68.8375261 58.55,62.69 C58.5420639,59.7213985 57.3538003,56.8778347 55.2471844,54.7862259 C53.1405686,52.6946171 50.2885823,51.526713 47.32,51.54 Z M54.81,12.37 L39.81,12.37 L12.5,82.05 L27.5,82.05 L33.29,66.22 L37.65,54.49 L47.12,28.63 L56.79,54.49 L61.34,66.22 L67.5,82.05 L82.91,82.05 L54.81,12.37 Z" id="Shape" fill="#A90D1B" fill-rule="nonzero" opacity="0.66"></path>
            <path d="M47.11,51.33 C40.9558086,51.3741195 35.998949,56.3920168 36.0301476,62.5462873 C36.0613463,68.7005579 41.0688255,73.6679416 47.223148,73.649664 C53.3774704,73.6313864 58.3553565,68.6343473 58.35,62.48 C58.3224425,56.2983056 53.2917161,51.3078609 47.11,51.33 Z M54.6,12.17 L39.6,12.17 L12.3,81.85 L27.3,81.85 L33.12,66 L37.47,54.27 L47,28.42 L56.67,54.29 L61.16,66 L67.29,81.83 L82.71,81.83 L54.6,12.17 Z" id="Shape" fill="#A60C1A" fill-rule="nonzero" opacity="0.69"></path>
            <path d="M46.91,51.13 C40.7544615,51.1686131 35.7925756,56.1841123 35.820116,62.3397102 C35.8476564,68.4953082 40.8542219,73.4662081 47.0098595,73.4497405 C53.165497,73.4332729 58.1453947,68.4356572 58.14,62.28 C58.1294103,59.3122216 56.9402991,56.4702045 54.8342615,54.3791698 C52.7282238,52.2881351 49.8777783,51.1193724 46.91,51.13 Z M54.4,12 L39.4,12 L12.09,81.65 L27.09,81.65 L32.88,65.82 L37.24,54.08 L46.72,28.22 L56.38,54.08 L61,65.82 L67.13,81.65 L82.5,81.65 L54.4,12 Z" id="Shape" fill="#A40C19" fill-rule="nonzero" opacity="0.71"></path>
            <path d="M46.7,50.93 C40.5539851,50.9796107 35.6071535,55.9933896 35.6401608,62.1395161 C35.6731681,68.2856425 40.6735649,73.2460006 46.8197581,73.2295971 C52.9659514,73.2131935 57.9397998,68.2262151 57.94,62.08 C57.9320723,59.1096572 56.7424356,56.2645694 54.6336529,54.1726719 C52.5248701,52.0807745 49.6703106,50.9140483 46.7,50.93 Z M54.2,11.76 L39.2,11.76 L11.89,81.45 L26.89,81.45 L32.68,65.62 L37.03,53.88 L46.54,28 L56.21,53.86 L60.76,65.6 L66.89,81.43 L82.3,81.43 L54.2,11.76 Z" id="Shape" fill="#A20B18" fill-rule="nonzero" opacity="0.73"></path>
            <path d="M46.5,50.73 C40.3539851,50.7796107 35.4071535,55.7933896 35.4401608,61.9395161 C35.4731681,68.0856425 40.4735649,73.0460006 46.6197581,73.0295971 C52.7659514,73.0131935 57.7397998,68.0262151 57.74,61.88 C57.7294148,58.910482 56.5389298,56.0669441 54.4307267,53.9756217 C52.3225237,51.8842993 49.4695072,50.7167124 46.5,50.73 Z M54,11.56 L39,11.56 L11.68,81.24 L26.68,81.24 L32.47,65.41 L36.82,53.68 L46.3,27.82 L56,53.68 L60.54,65.41 L66.67,81.24 L82.09,81.24 L54,11.56 Z" id="Shape" fill="#A00A17" fill-rule="nonzero" opacity="0.76"></path>
            <path d="M46.3,50.52 C40.1457621,50.5586026 35.1844025,55.5720688 35.2100973,61.7263741 C35.2357921,67.8806794 40.2388415,72.8525433 46.3931871,72.8397564 C52.5475328,72.8269695 57.5298789,67.8343589 57.53,61.68 C57.5220578,58.7104861 56.334114,55.8659006 54.2277887,53.7727046 C52.1214633,51.6795086 49.2695055,50.5093745 46.3,50.52 Z M53.79,11.36 L38.79,11.36 L11.48,81 L26.48,81 L32.3,65.21 L36.66,53.48 L46.14,27.61 L55.8,53.48 L60.35,65.21 L66.48,81 L81.89,81 L53.79,11.36 Z" id="Shape" fill="#9E0916" fill-rule="nonzero" opacity="0.78"></path>
            <path d="M46.09,50.32 C39.9358086,50.3641195 34.978949,55.3820168 35.0101476,61.5362873 C35.0413463,67.6905579 40.0488255,72.6579416 46.203148,72.639664 C52.3574704,72.6213864 57.3353565,67.6243473 57.33,61.47 C57.3024425,55.2883056 52.2717161,50.2978609 46.09,50.32 Z M53.59,11.16 L38.59,11.16 L11.28,80.84 L26.28,80.84 L32.1,65 L36.45,53.26 L45.93,27.4 L55.6,53.27 L60.14,65 L66.27,80.83 L81.69,80.83 L53.59,11.16 Z" id="Shape" fill="#9C0815" fill-rule="nonzero" opacity="0.81"></path>
            <path d="M45.89,50.12 C39.7358086,50.1641195 34.778949,55.1820168 34.8101476,61.3362873 C34.8413463,67.4905579 39.8488255,72.4579416 46.003148,72.439664 C52.1574704,72.4213864 57.1353565,67.4243473 57.13,61.27 C57.1194148,58.300482 55.9289298,55.4569441 53.8207267,53.3656217 C51.7125237,51.2742993 48.8595072,50.1067124 45.89,50.12 Z M53.38,11 L38.38,11 L11.07,80.64 L26.07,80.64 L31.9,64.81 L36.25,53.07 L45.73,27.21 L55.39,53.07 L59.94,64.81 L66.07,80.64 L81.48,80.64 L53.38,11 Z" id="Shape" fill="#9A0714" fill-rule="nonzero" opacity="0.83"></path>
            <path d="M45.69,49.92 C39.5426321,49.9641078 34.5907745,54.9754949 34.6201271,61.1229509 C34.6494797,67.270407 39.6489667,72.2342788 45.7964755,72.2196816 C51.9439843,72.2050843 56.9198418,67.2175261 56.92,61.07 C56.9120639,58.1013985 55.7238003,55.2578347 53.6171844,53.1662259 C51.5105686,51.0746171 48.6585823,49.906713 45.69,49.92 Z M53.18,10.75 L38.18,10.75 L10.87,80.43 L25.87,80.43 L31.69,64.6 L36.05,52.87 L45.52,27 L55.19,52.86 L59.74,64.6 L65.87,80.43 L81.28,80.43 L53.18,10.75 Z" id="Shape" fill="#980713" fill-rule="nonzero" opacity="0.85"></path>
            <path d="M45.48,49.72 C39.3339851,49.7696107 34.3871535,54.7833896 34.4201608,60.9295161 C34.4531681,67.0756425 39.4535649,72.0360006 45.5997581,72.0195971 C51.7459514,72.0031935 56.7197998,67.0162151 56.72,60.87 C56.7094148,57.900482 55.5189298,55.0569441 53.4107267,52.9656217 C51.3025237,50.8742993 48.4495072,49.7067124 45.48,49.72 Z M53,10.55 L38,10.55 L10.67,80.23 L25.67,80.23 L31.49,64.4 L35.84,52.67 L45.32,26.81 L55,52.67 L59.53,64.4 L65.66,80.23 L81.08,80.23 L53,10.55 Z" id="Shape" fill="#950612" fill-rule="nonzero" opacity="0.88"></path>
            <path d="M45.28,49.51 C39.1244615,49.5486131 34.1625756,54.5641123 34.190116,60.7197102 C34.2176564,66.8753082 39.2242219,71.8462081 45.3798595,71.8297405 C51.535497,71.8132729 56.5153947,66.8156572 56.51,60.66 C56.4824427,54.4822221 51.4578171,49.4933908 45.28,49.51 Z M52.77,10.35 L37.77,10.35 L10.46,80 L25.46,80 L31.28,64.2 L35.64,52.47 L45.12,26.6 L54.78,52.47 L59.33,64.2 L65.46,80 L80.87,80 L52.77,10.35 Z" id="Shape" fill="#930511" fill-rule="nonzero" opacity="0.9"></path>
            <path d="M45.07,49.31 C38.9158086,49.3541195 33.958949,54.3720168 33.9901476,60.5262873 C34.0213463,66.6805579 39.0288255,71.6479416 45.183148,71.629664 C51.3374704,71.6113864 56.3153565,66.6143473 56.31,60.46 C56.3020723,57.4896572 55.1124356,54.6445694 53.0036529,52.5526719 C50.8948701,50.4607745 48.0403106,49.2940483 45.07,49.31 Z M52.57,10.15 L37.57,10.15 L10.26,79.83 L25.26,79.83 L31.08,64 L35.44,52.26 L44.91,26.4 L54.58,52.26 L59.13,64 L65.26,79.83 L80.67,79.83 L52.57,10.15 Z" id="Shape" fill="#910410" fill-rule="nonzero" opacity="0.93"></path>
            <path d="M44.87,49.11 C38.7239851,49.1596107 33.7771535,54.1733896 33.8101608,60.3195161 C33.8431681,66.4656425 38.8435649,71.4260006 44.9897581,71.4095971 C51.1359514,71.3931935 56.1097998,66.4062151 56.11,60.26 C56.0994148,57.290482 54.9089298,54.4469441 52.8007267,52.3556217 C50.6925237,50.2642993 47.8395072,49.0967124 44.87,49.11 Z M52.36,9.94 L37.36,9.94 L10.05,79.63 L25.05,79.63 L30.88,63.8 L35.23,52.06 L44.71,26.2 L54.38,52.06 L58.92,63.8 L65.05,79.63 L80.46,79.63 L52.36,9.94 Z" id="Shape" fill="#8F030F" fill-rule="nonzero" opacity="0.95"></path>
            <path d="M44.67,48.91 C38.5226321,48.9541078 33.5707745,53.9654949 33.6001271,60.1129509 C33.6294797,66.260407 38.6289667,71.2242788 44.7764755,71.2096816 C50.9239843,71.1950843 55.8998418,66.2075261 55.9,60.06 C55.8920639,57.0913985 54.7038003,54.2478347 52.5971844,52.1562259 C50.4905686,50.0646171 47.6385823,48.896713 44.67,48.91 Z M52.16,9.74 L37.16,9.74 L9.85,79.42 L24.85,79.42 L30.64,63.59 L35,51.86 L44.51,26 L54.17,51.86 L58.72,63.59 L64.85,79.42 L80.26,79.42 L52.16,9.74 Z" id="Shape" fill="#8D020E" fill-rule="nonzero" opacity="0.98"></path>
            <path d="M52,9.54 L37,9.54 L9.65,79.22 L24.65,79.22 L30.44,63.39 L34.79,51.66 L44.3,25.79 L54,51.66 L58.54,63.39 L64.67,79.22 L80.06,79.22 L52,9.54 Z M44.46,48.7 C38.3071091,48.7441079 33.3507743,53.7599723 33.380127,59.9129513 C33.4094797,66.0659303 38.413444,71.0342792 44.5664757,71.0196819 C50.7195074,71.0050845 55.6998419,66.013049 55.7,59.86 C55.6894103,56.8895694 54.4992455,54.0450089 52.3913325,51.9520988 C50.2834195,49.8591887 47.4304304,48.6893724 44.46,48.7 Z" id="Shape" fill="#8B020C" fill-rule="nonzero"></path>
            <g id="Group" style="mix-blend-mode: multiply;" transform="translate(9.000000, 9.000000)" fill-rule="nonzero">
                <path d="M46,3.53 L31,3.53 L3.66,73.22 L18.66,73.22 L24.46,57.38 L28.81,45.65 L38.29,19.79 L48,45.65 L52.55,57.38 L58.68,73.22 L74.07,73.22 L46,3.53 Z M38.48,42.7 C32.3326321,42.7441078 27.3807745,47.7554949 27.4101271,53.9029509 C27.4394797,60.050407 32.4389667,65.0142788 38.5864755,64.9996816 C44.7339843,64.9850843 49.7098418,59.9975261 49.71,53.85 C49.6994103,50.8822216 48.5102991,48.0402045 46.4042615,45.9491698 C44.2982238,43.8581351 41.4477783,42.6893724 38.48,42.7 Z" id="Shape" fill="#ED1B2E"></path>
                <path d="M38.38,42.6 C32.2258086,42.6441195 27.268949,47.6620168 27.3001476,53.8162873 C27.3313463,59.9705579 32.3388255,64.9379416 38.493148,64.919664 C44.6474704,64.9013864 49.6253565,59.9043473 49.62,53.75 C49.6094148,50.780482 48.4189298,47.9369441 46.3107267,45.8456217 C44.2025237,43.7542993 41.3495072,42.5867124 38.38,42.6 Z M45.87,3.44 L30.87,3.44 L3.56,73.12 L18.56,73.12 L24.35,57.29 L28.7,45.55 L38.18,19.69 L47.85,45.55 L52.39,57.29 L58.53,73.12 L74,73.12 L45.87,3.44 Z" id="Shape" fill="#E91B2D"></path>
                <path d="M38.29,42.51 C32.1426321,42.5541078 27.1907745,47.5654949 27.2201271,53.7129509 C27.2494797,59.860407 32.2489667,64.8242788 38.3964755,64.8096816 C44.5439843,64.7950843 49.5198418,59.8075261 49.52,53.66 C49.5120639,50.6913985 48.3238003,47.8478347 46.2171844,45.7562259 C44.1105686,43.6646171 41.2585823,42.496713 38.29,42.51 Z M45.78,3.34 L30.78,3.34 L3.47,73 L18.47,73 L24.26,57.17 L28.61,45.44 L38.12,19.6 L47.79,45.46 L52.34,57.19 L58.47,73 L73.88,73 L45.78,3.34 Z" id="Shape" fill="#E61B2C"></path>
                <path d="M38.19,42.41 C32.0426321,42.4541078 27.0907745,47.4654949 27.1201271,53.6129509 C27.1494797,59.760407 32.1489667,64.7242788 38.2964755,64.7096816 C44.4439843,64.6950843 49.4198418,59.7075261 49.42,53.56 C49.4094103,50.5922216 48.2202991,47.7502045 46.1142615,45.6591698 C44.0082238,43.5681351 41.1577783,42.3993724 38.19,42.41 Z M45.68,3.24 L30.68,3.24 L3.37,72.93 L18.37,72.93 L24.16,57.09 L28.52,45.36 L38,19.5 L47.66,45.36 L52.21,57.09 L58.34,72.93 L73.78,72.93 L45.68,3.24 Z" id="Shape" fill="#E41A2C"></path>
                <path d="M38.09,42.31 C31.9358086,42.3541195 26.978949,47.3720168 27.0101476,53.5262873 C27.0413463,59.6805579 32.0488255,64.6479416 38.203148,64.629664 C44.3574704,64.6113864 49.3353565,59.6143473 49.33,53.46 C49.3024425,47.2783056 44.2717161,42.2878609 38.09,42.31 Z M45.58,3.15 L30.58,3.15 L3.27,72.83 L18.27,72.83 L24.1,57 L28.45,45.26 L37.93,19.4 L47.6,45.26 L52.14,57 L58.27,72.83 L73.68,72.83 L45.58,3.15 Z" id="Shape" fill="#E21A2B"></path>
                <path d="M38,42.22 C31.8526321,42.2641078 26.9007745,47.2754949 26.9301271,53.4229509 C26.9594797,59.570407 31.9589667,64.5342788 38.1064755,64.5196816 C44.2539843,64.5050843 49.2298418,59.5175261 49.23,53.37 C49.2194103,50.4022216 48.0302991,47.5602045 45.9242615,45.4691698 C43.8182238,43.3781351 40.9677783,42.2093724 38,42.22 Z M45.5,3.05 L30.5,3.05 L3.17,72.73 L18.17,72.73 L24,56.9 L28.35,45.17 L37.83,19.31 L47.5,45.17 L52.05,56.9 L58.18,72.73 L73.58,72.73 L45.5,3.05 Z" id="Shape" fill="#E0192B"></path>
                <path d="M37.9,42.12 C31.7526321,42.1641078 26.8007745,47.1754949 26.8301271,53.3229509 C26.8594797,59.470407 31.8589667,64.4342788 38.0064755,64.4196816 C44.1539843,64.4050843 49.1298418,59.4175261 49.13,53.27 C49.1220639,50.3013985 47.9338003,47.4578347 45.8271844,45.3662259 C43.7205686,43.2746171 40.8685823,42.106713 37.9,42.12 Z M45.39,3 L30.39,3 L3.08,72.64 L18.08,72.64 L23.9,56.8 L28.26,45.07 L37.73,19.21 L47.4,45.07 L52,56.8 L58.13,72.64 L73.49,72.64 L45.39,3 Z" id="Shape" fill="#DD192A"></path>
                <path d="M37.8,42 C31.6430594,42.0220705 26.6671674,47.0262741 26.6800289,53.1832408 C26.6928904,59.3402075 31.6896459,64.3235788 37.846625,64.3199263 C44.003604,64.3162739 48.9944434,59.3269776 49,53.17 C48.9834628,46.9961298 43.9738924,41.9999779 37.8,42 Z M45.29,2.84 L30.29,2.84 L3,72.54 L18,72.54 L23.8,56.71 L28.16,45 L37.64,19.14 L47.3,45 L51.85,56.74 L58,72.54 L73.39,72.54 L45.29,2.84 Z" id="Shape" fill="#DB192A"></path>
                <path d="M37.7,41.93 C31.5539851,41.9796107 26.6071535,46.9933896 26.6401608,53.1395161 C26.6731681,59.2856425 31.6735649,64.2460006 37.8197581,64.2295971 C43.9659514,64.2131935 48.9397998,59.2262151 48.94,53.08 C48.9294148,50.110482 47.7389298,47.2669441 45.6307267,45.1756217 C43.5225237,43.0842993 40.6695072,41.9167124 37.7,41.93 Z M45.19,2.76 L30.19,2.76 L2.88,72.44 L17.88,72.44 L23.67,56.61 L28.02,44.88 L37.54,19 L47.21,44.86 L51.75,56.59 L57.88,72.42 L73.29,72.42 L45.19,2.76 Z" id="Shape" fill="#D91829"></path>
                <path d="M37.6,41.83 C31.4565894,41.8795999 26.5108188,46.8893209 26.5401456,53.0328617 C26.5694724,59.1764025 31.5628454,64.1386779 37.7064495,64.1296245 C43.8500536,64.1205711 48.8287798,59.1436005 48.84,53 C48.8373829,50.0261881 47.6500876,47.1759552 45.5407262,45.0797303 C43.4313647,42.9835055 40.5737702,41.8140392 37.6,41.83 Z M45.1,2.66 L30.1,2.66 L2.79,72.35 L17.79,72.35 L23.58,56.51 L28,44.78 L37.48,18.92 L47.15,44.78 L51.7,56.51 L57.83,72.35 L73.2,72.35 L45.1,2.66 Z" id="Shape" fill="#D71829"></path>
                <path d="M37.51,41.73 C31.3544615,41.7686131 26.3925756,46.7841123 26.420116,52.9397102 C26.4476564,59.0953082 31.4542219,64.0662081 37.6098595,64.0497405 C43.765497,64.0332729 48.7453947,59.0356572 48.74,52.88 C48.7294103,49.9122216 47.5402991,47.0702045 45.4342615,44.9791698 C43.3282238,42.8881351 40.4777783,41.7193724 37.51,41.73 Z M45,2.57 L30,2.57 L2.69,72.25 L17.69,72.25 L23.48,56.42 L27.84,44.69 L37.32,18.82 L47,44.69 L51.55,56.42 L57.68,72.25 L73.1,72.25 L45,2.57 Z" id="Shape" fill="#D51828"></path>
                <path d="M37.41,41.64 C31.2626321,41.6841078 26.3107745,46.6954949 26.3401271,52.8429509 C26.3694797,58.990407 31.3689667,63.9542788 37.5164755,63.9396816 C43.6639843,63.9250843 48.6398418,58.9375261 48.64,52.79 C48.6294103,49.8222216 47.4402991,46.9802045 45.3342615,44.8891698 C43.2282238,42.7981351 40.3777783,41.6293724 37.41,41.64 Z M44.9,2.47 L29.9,2.47 L2.59,72.15 L17.59,72.15 L23.39,56.32 L27.74,44.59 L37.22,18.73 L46.88,44.59 L51.43,56.32 L57.56,72.15 L73,72.15 L44.9,2.47 Z" id="Shape" fill="#D31728"></path>
                <path d="M37.31,41.54 C31.1639851,41.5896107 26.2171535,46.6033896 26.2501608,52.7495161 C26.2831681,58.8956425 31.2835649,63.8560006 37.4297581,63.8395971 C43.5759514,63.8231935 48.5497998,58.8362151 48.55,52.69 C48.5394148,49.720482 47.3489298,46.8769441 45.2407267,44.7856217 C43.1325237,42.6942993 40.2795072,41.5267124 37.31,41.54 Z M44.8,2.37 L29.8,2.37 L2.49,72.06 L17.49,72.06 L23.28,56.23 L27.63,44.49 L37.11,18.63 L46.78,44.49 L51.32,56.23 L57.45,72.06 L72.9,72.06 L44.8,2.37 Z" id="Shape" fill="#D01727"></path>
                <path d="M37.22,41.44 C31.0657621,41.4786026 26.1044025,46.4920688 26.1300973,52.6463741 C26.1557921,58.8006794 31.1588415,63.7725433 37.3131871,63.7597564 C43.4675328,63.7469695 48.4498789,58.7543589 48.45,52.6 C48.4420578,49.6304861 47.254114,46.7859006 45.1477887,44.6927046 C43.0414633,42.5995086 40.1895055,41.4293745 37.22,41.44 Z M44.71,2.28 L29.71,2.28 L2.4,72 L17.4,72 L23.19,56.17 L27.57,44.4 L37.05,18.53 L46.72,44.4 L51.27,56.13 L57.4,72 L72.81,72 L44.71,2.28 Z" id="Shape" fill="#CE1627"></path>
                <path d="M37.12,41.35 C30.9726321,41.3941078 26.0207745,46.4054949 26.0501271,52.5529509 C26.0794797,58.700407 31.0789667,63.6642788 37.2264755,63.6496816 C43.3739843,63.6350843 48.3498418,58.6475261 48.35,52.5 C48.3394103,49.5322216 47.1502991,46.6902045 45.0442615,44.5991698 C42.9382238,42.5081351 40.0877783,41.3393724 37.12,41.35 Z M44.61,2.18 L29.61,2.18 L2.3,71.86 L17.3,71.86 L23.12,56 L27.48,44.3 L37,18.44 L46.62,44.3 L51.17,56 L57.3,71.86 L72.71,71.86 L44.61,2.18 Z" id="Shape" fill="#CC1626"></path>
                <path d="M37,41.25 C30.8485207,41.3051252 25.9017172,46.3277999 25.9402227,52.4794057 C25.9787282,58.6310116 30.9880197,63.5913668 37.1397071,63.5694813 C43.2913945,63.5475958 48.2652653,58.5517241 48.26,52.4 C48.2494309,49.4269978 47.0561987,46.5804119 44.9436619,44.4885127 C42.8311251,42.3966135 39.9729627,41.2313832 37,41.25 Z M44.49,2.09 L29.49,2.09 L2.2,71.77 L17.2,71.77 L23,55.94 L27.38,44.2 L36.86,18.34 L46.53,44.2 L51.07,55.94 L57.2,71.77 L72.61,71.77 L44.49,2.09 Z" id="Shape" fill="#CA1626"></path>
                <path d="M36.92,41.15 C30.7671091,41.1941079 25.8107743,46.2099723 25.840127,52.3629513 C25.8694797,58.5159303 30.873444,63.4842792 37.0264757,63.4696819 C43.1795074,63.4550845 48.1598419,58.463049 48.16,52.31 C48.1494103,49.3395694 46.9592455,46.4950089 44.8513325,44.4020988 C42.7434195,42.3091887 39.8904304,41.1393724 36.92,41.15 Z M44.42,2 L29.42,2 L2.11,71.67 L17.11,71.67 L22.9,55.84 L27.25,44.11 L36.73,18.24 L46.4,44.11 L51,55.84 L57.14,71.67 L72.52,71.67 L44.42,2 Z" id="Shape" fill="#C81525"></path>
                <path d="M36.83,41.06 C30.6826321,41.1041078 25.7307745,46.1154949 25.7601271,52.2629509 C25.7894797,58.410407 30.7889667,63.3742788 36.9364755,63.3596816 C43.0839843,63.3450843 48.0598418,58.3575261 48.06,52.21 C48.0520639,49.2413985 46.8638003,46.3978347 44.7571844,44.3062259 C42.6505686,42.2146171 39.7985823,41.046713 36.83,41.06 Z M44.32,1.89 L29.32,1.89 L2,71.57 L17,71.57 L22.79,55.74 L27.19,44 L36.66,18.14 L46.33,44 L50.88,55.73 L57,71.57 L72.42,71.57 L44.32,1.89 Z" id="Shape" fill="#C61524"></path>
                <path d="M36.73,41 C30.574696,41.060734 25.6308891,46.0939451 25.6804716,52.2493491 C25.7300542,58.404753 30.7543006,63.3576702 36.9097842,63.3192393 C43.0652679,63.2808083 48.0272792,58.2655432 48,52.11 C47.9788584,49.1422037 46.779591,46.3043677 44.6660395,44.2208222 C42.552488,42.1372767 39.6977952,40.9787067 36.73,41 Z M44.22,1.8 L29.22,1.8 L1.91,71.48 L16.91,71.48 L22.7,55.65 L27.06,43.91 L36.54,18.05 L46.2,43.91 L50.75,55.65 L56.88,71.48 L72.32,71.48 L44.22,1.8 Z" id="Shape" fill="#C41424"></path>
                <path d="M36.63,40.86 C30.4745091,40.9041361 25.5171296,45.9240689 25.5501783,52.0796293 C25.5832269,58.2351897 30.5942222,63.2016032 36.7498321,63.1796421 C42.905442,63.1576811 47.8808734,58.1556395 47.87,52 C47.836944,45.8222177 42.8078311,40.8378477 36.63,40.86 Z M44.12,1.7 L29.12,1.7 L1.81,71.38 L16.81,71.38 L22.6,55.55 L27,43.82 L36.47,18 L46.14,43.87 L50.68,55.6 L56.81,71.43 L72.22,71.43 L44.12,1.7 Z" id="Shape" fill="#C11423"></path>
                <path d="M36.53,40.77 C30.3839851,40.8196107 25.4371535,45.8333896 25.4701608,51.9795161 C25.5031681,58.1256425 30.5035649,63.0860006 36.6497581,63.0695971 C42.7959514,63.0531935 47.7697998,58.0662151 47.77,51.92 C47.7620723,48.9496572 46.5724356,46.1045694 44.4636529,44.0126719 C42.3548701,41.9207745 39.5003106,40.7540483 36.53,40.77 Z M44,1.6 L29,1.6 L1.72,71.28 L16.72,71.28 L22.51,55.45 L26.86,43.72 L36.34,17.86 L46,43.72 L50.55,55.45 L56.68,71.28 L72.13,71.28 L44,1.6 Z" id="Shape" fill="#BF1323"></path>
                <path d="M36.44,40.67 C30.2844615,40.7086131 25.3225756,45.7241123 25.350116,51.8797102 C25.3776564,58.0353082 30.3842219,63.0062081 36.5398595,62.9897405 C42.695497,62.9732729 47.6753947,57.9756572 47.67,51.82 C47.6620639,48.8513985 46.4738003,46.0078347 44.3671844,43.9162259 C42.2605686,41.8246171 39.4085823,40.656713 36.44,40.67 Z M43.93,1.51 L29,1.51 L1.62,71.19 L16.62,71.19 L22.41,55.36 L26.8,43.62 L36.27,17.76 L45.94,43.62 L50.49,55.36 L56.62,71.19 L72,71.19 L43.93,1.51 Z" id="Shape" fill="#BD1322"></path>
                <path d="M36.34,40.57 C30.1857621,40.6086026 25.2244025,45.6220688 25.2500973,51.7763741 C25.2757921,57.9306794 30.2788415,62.9025433 36.4331871,62.8897564 C42.5875328,62.8769695 47.5698789,57.8843589 47.57,51.73 C47.5479447,45.5483115 42.5217056,40.5534025 36.34,40.57 Z M43.83,1.41 L28.83,1.41 L1.52,71.09 L16.52,71.09 L22.3,55.26 L26.7,43.53 L36.18,17.66 L45.84,43.53 L50.39,55.26 L56.52,71.09 L71.93,71.09 L43.83,1.41 Z" id="Shape" fill="#BB1221"></path>
                <path d="M36.24,40.48 C30.0939851,40.5296107 25.1471535,45.5433896 25.1801608,51.6895161 C25.2131681,57.8356425 30.2135649,62.7960006 36.3597581,62.7795971 C42.5059514,62.7631935 47.4797998,57.7762151 47.48,51.63 C47.4694148,48.660482 46.2789298,45.8169441 44.1707267,43.7256217 C42.0625237,41.6342993 39.2095072,40.4667124 36.24,40.48 Z M43.73,1.31 L28.73,1.31 L1.43,71 L16.43,71 L22.22,55.17 L26.6,43.43 L36.08,17.57 L45.75,43.43 L50.29,55.16 L56.42,71 L71.84,71 L43.73,1.31 Z" id="Shape" fill="#B91221"></path>
                <path d="M36.14,40.38 C29.9858086,40.4241195 25.028949,45.4420168 25.0601476,51.5962873 C25.0913463,57.7505579 30.0988255,62.7179416 36.253148,62.699664 C42.4074704,62.6813864 47.3853565,57.6843473 47.38,51.53 C47.3720723,48.5596572 46.1824356,45.7145694 44.0736529,43.6226719 C41.9648701,41.5307745 39.1103106,40.3640483 36.14,40.38 Z M43.64,1.22 L28.64,1.22 L1.33,70.9 L16.33,70.9 L22.12,55.07 L26.48,43.33 L36,17.47 L45.67,43.33 L50.2,55.07 L56.33,70.9 L71.74,70.9 L43.64,1.22 Z" id="Shape" fill="#B61120"></path>
                <path d="M36.05,40.28 C29.8957621,40.3186026 24.9344025,45.3320688 24.9600973,51.4863741 C24.9857921,57.6406794 29.9888415,62.6125433 36.1431871,62.5997564 C42.2975328,62.5869695 47.2798789,57.5943589 47.28,51.44 C47.2579447,45.2583115 42.2317056,40.2634025 36.05,40.28 Z M43.54,1.12 L28.54,1.12 L1.23,70.8 L16.23,70.8 L22.05,55 L26.41,43.27 L35.89,17.4 L45.55,43.27 L50.1,55 L56.23,70.8 L71.64,70.8 L43.54,1.12 Z" id="Shape" fill="#B4111F"></path>
                <path d="M36,40.19 C29.8472803,40.2120727 24.8753299,45.2138293 24.8900318,51.366571 C24.9047338,57.5193127 29.9005306,62.4972515 36.0532855,62.4899203 C42.2060404,62.4825892 47.1899604,57.4927593 47.19,51.34 C47.1679643,45.1755604 42.164479,40.1899606 36,40.19 Z M43.44,1 L28.44,1 L1.13,70.7 L16.13,70.7 L22,54.87 L26.35,43.14 L35.83,17.28 L45.5,43.14 L50,54.87 L56.13,70.7 L71.54,70.7 L43.44,1 Z" id="Shape" fill="#B2101E"></path>
                <path d="M35.85,40.09 C29.6958086,40.1341195 24.738949,45.1520168 24.7701476,51.3062873 C24.8013463,57.4605579 29.8088255,62.4279416 35.963148,62.409664 C42.1174704,62.3913864 47.0953565,57.3943473 47.09,51.24 C47.0794148,48.270482 45.8889298,45.4269441 43.7807267,43.3356217 C41.6725237,41.2442993 38.8195072,40.0767124 35.85,40.09 Z M43.35,0.93 L28.35,0.93 L1,70.61 L16,70.61 L21.79,54.78 L26.21,43 L35.69,17.14 L45.36,43 L49.9,54.78 L56,70.61 L71.45,70.61 L43.35,0.93 Z" id="Shape" fill="#B00F1E"></path>
                <path d="M35.76,40 C29.6058086,40.0441195 24.648949,45.0620168 24.6801476,51.2162873 C24.7113463,57.3705579 29.7188255,62.3379416 35.873148,62.319664 C42.0274704,62.3013864 47.0053565,57.3043473 47,51.15 C46.9894148,48.180482 45.7989298,45.3369441 43.6907267,43.2456217 C41.5825237,41.1542993 38.7295072,39.9867124 35.76,40 Z M43.25,0.83 L28.25,0.83 L0.94,70.51 L16,70.51 L21.79,54.68 L26.12,43 L35.59,17.13 L45.26,43 L49.81,54.73 L55.94,70.56 L71.35,70.56 L43.25,0.83 Z" id="Shape" fill="#AE0F1D"></path>
                <path d="M35.66,39.9 C29.5126321,39.9441078 24.5607745,44.9554949 24.5901271,51.1029509 C24.6194797,57.250407 29.6189667,62.2142788 35.7664755,62.1996816 C41.9139843,62.1850843 46.8898418,57.1975261 46.89,51.05 C46.8794103,48.0822216 45.6902991,45.2402045 43.5842615,43.1491698 C41.4782238,41.0581351 38.6277783,39.8893724 35.66,39.9 Z M43.15,0.73 L28.15,0.73 L0.84,70.41 L15.84,70.41 L21.63,54.58 L26,42.85 L35.5,17 L45.16,42.86 L49.71,54.59 L55.84,70.42 L71.25,70.42 L43.15,0.73 Z" id="Shape" fill="#AB0E1C"></path>
                <path d="M35.56,39.8 C29.4123225,39.8441106 24.4581348,44.8518695 24.4801442,50.9996658 C24.5021536,57.1474621 29.4920699,62.1196207 35.6399056,62.1197127 C41.7877413,62.1198048 46.7778065,57.1477956 46.8,51 C46.8026912,48.0218115 45.6180612,45.1654127 43.5084126,43.0632717 C41.3987639,40.9611307 38.53816,39.7866914 35.56,39.8 Z M43.05,0.64 L28.05,0.64 L0.74,70.32 L15.74,70.32 L21.53,54.49 L25.88,42.75 L35.4,16.89 L45.07,42.75 L49.61,54.49 L55.74,70.32 L71.15,70.32 L43.05,0.64 Z" id="Shape" fill="#A90D1B"></path>
                <path d="M43,0.54 L28,0.54 L0.65,70.22 L15.65,70.22 L21.44,54.39 L25.79,42.66 L35.3,16.79 L45,42.66 L49.54,54.39 L55.67,70.22 L71.06,70.22 L43,0.54 Z M35.46,39.7 C29.3071091,39.7441079 24.3507743,44.7599723 24.380127,50.9129513 C24.4094797,57.0659303 29.413444,62.0342792 35.5664757,62.0196819 C41.7195074,62.0050845 46.6998419,57.013049 46.7,50.86 C46.6894103,47.8895694 45.4992455,45.0450089 43.3913325,42.9520988 C41.2834195,40.8591887 38.4304304,39.6893724 35.46,39.7 Z" id="Shape" fill="#A70C1A"></path>
            </g>
            <polygon id="Path" fill="#FFFFFF" points="52.18 9.54 36.56 9.54 9.43 79.19 24.73 79.19 44.37 27.26 64.01 79.19 79.31 79.19"></polygon>
            <path d="M55.51,59.83 C55.4989542,53.6733396 50.5000177,48.6908158 44.3433543,48.7000169 C38.1866908,48.7092181 33.2026695,53.7066614 33.2100259,59.8633273 C33.2173824,66.0199933 38.2133321,71.0055118 44.37,71 C47.3297169,71.0000107 50.1677754,69.8222183 52.2577951,67.7265701 C54.3478149,65.6309219 55.5179705,62.7897061 55.51,59.83 Z" id="Path" fill="#FFFFFF"></path>
        </g>
    </g>
</svg>